<?xml version="1.0" encoding="utf-8"?>
<!-- Generator: Adobe Illustrator 15.0.0, SVG Export Plug-In . SVG Version: 6.00 Build 0)  -->
<!DOCTYPE svg PUBLIC "-//W3C//DTD SVG 1.1//EN" "http://www.w3.org/Graphics/SVG/1.1/DTD/svg11.dtd">
<svg version="1.1" id="图层_1" xmlns="http://www.w3.org/2000/svg" xmlns:xlink="http://www.w3.org/1999/xlink" x="0px" y="0px"
	 width="283.465px" height="93.418px" viewBox="91.406 30.124 283.465 93.418"
	 enable-background="new 91.406 30.124 283.465 93.418" xml:space="preserve">
<g>
	<path fill="#FF8900" d="M273.869,56.073c0-14.331,11.576-25.948,25.85-25.948h0.001v93.417h-25.851V56.073L273.869,56.073z"/>
	<rect x="311.228" y="30.125" fill="#FF8900" width="25.85" height="93.417"/>
	<path fill="#FF8900" d="M374.872,56.073c0-14.331-11.575-25.948-25.849-25.948l0,0v93.417h25.849V56.073L374.872,56.073z"/>
	<path fill="#FF8900" d="M263.204,80.889c0,23.559-19.096,42.65-42.65,42.65c-23.554,0-42.65-19.094-42.65-42.65v0.059V30.181l0,0
		c14.272,0,25.85,11.573,25.85,25.849v24.917l-0.002-0.059c0,9.281,7.523,16.804,16.804,16.804c9.279,0,16.803-7.522,16.803-16.804
		v0.059V56.03c0-14.275,11.574-25.848,25.849-25.848h0.001V80.95"/>
	<path fill="#FF8900" d="M116.144,54.312c-2.951,0-5.343,2.385-5.343,5.326c0,2.94,2.392,5.324,5.343,5.324V64.95h21.581
		c16.179,0,29.295,13.115,29.295,29.294c0,16.178-13.116,29.295-29.295,29.295H91.407l0,0c0-13.322,10.804-24.125,24.127-24.125
		v0.018h26.78v-0.016c2.938,0,5.324-2.383,5.324-5.322s-2.386-5.324-5.324-5.324h-21.611c-16.18,0.003-29.296-13.114-29.296-29.292
		c0-16.18,13.116-29.295,29.296-29.295h41.148l0,0c0,13.324-10.803,24.125-24.126,24.125v-0.019h-21.581"/>
</g>
<g opacity="0.5">
	<path d="M86.163,228.75v2.854H71.935v-25.076h3.377v22.225L86.163,228.75L86.163,228.75z"/>
	<path d="M119.167,231.604h-3.395v-25.076h3.395V231.604z"/>
	<path d="M172.821,219.545v9.625c-1.26,0.91-2.604,1.59-4.034,2.039s-2.995,0.674-4.699,0.674c-2.019,0-3.838-0.313-5.46-0.936
		c-1.622-0.625-3.007-1.5-4.151-2.625c-1.149-1.131-2.033-2.48-2.651-4.055c-0.618-1.575-0.927-3.313-0.927-5.195
		c0-1.912,0.3-3.656,0.896-5.232c0.604-1.574,1.455-2.924,2.563-4.051c1.104-1.125,2.456-1.998,4.042-2.615s3.355-0.928,5.32-0.928
		c0.986,0,1.908,0.068,2.765,0.219c0.852,0.146,1.639,0.354,2.363,0.631c0.723,0.273,1.394,0.605,2.012,0.996
		c0.619,0.393,1.196,0.832,1.729,1.32l-0.963,1.541c-0.146,0.23-0.347,0.383-0.586,0.441c-0.234,0.063-0.505,0.014-0.796-0.166
		c-0.28-0.162-0.601-0.357-0.962-0.596c-0.362-0.231-0.802-0.459-1.321-0.676c-0.519-0.217-1.132-0.396-1.837-0.553
		c-0.706-0.15-1.543-0.229-2.511-0.229c-1.412,0-2.688,0.23-3.833,0.691c-1.144,0.461-2.118,1.118-2.923,1.979
		c-0.805,0.855-1.423,1.896-1.855,3.113c-0.432,1.221-0.646,2.588-0.646,4.104c0,1.574,0.225,2.984,0.674,4.229
		c0.449,1.242,1.091,2.299,1.925,3.166c0.834,0.871,1.851,1.531,3.036,1.986c1.19,0.454,2.525,0.684,4.007,0.684
		c1.167,0,2.202-0.131,3.106-0.396c0.902-0.263,1.788-0.627,2.646-1.095v-5.514h-3.897c-0.227,0-0.4-0.063-0.534-0.191
		c-0.134-0.127-0.201-0.284-0.201-0.475v-1.924h7.7L172.821,219.545L172.821,219.545z"/>
	<path d="M225.216,206.527v25.076h-3.395v-11.41h-13.527v11.41h-3.395v-25.076h3.395v11.183h13.527v-11.183H225.216z"/>
	<path d="M274.442,209.379h-8.12v22.225h-3.378v-22.225h-8.137v-2.854h19.635V209.379L274.442,209.379z"/>
	<path d="M307.383,231.604h-3.396v-25.076h3.396V231.604z"/>
	<path d="M360.979,206.527v25.076h-1.697c-0.269,0-0.493-0.047-0.674-0.14c-0.181-0.094-0.354-0.252-0.533-0.473l-14.508-18.9
		c0.023,0.291,0.041,0.578,0.053,0.857c0.017,0.276,0.021,0.543,0.021,0.784V231.6h-2.979v-25.078h1.75
		c0.151,0,0.28,0.012,0.391,0.023c0.104,0.02,0.193,0.047,0.274,0.088c0.082,0.041,0.163,0.103,0.245,0.178
		c0.082,0.076,0.169,0.172,0.268,0.289l14.508,18.883c-0.023-0.307-0.044-0.6-0.063-0.885c-0.018-0.285-0.021-0.561-0.021-0.813
		V206.52h2.974L360.979,206.527L360.979,206.527z"/>
	<path d="M414.635,219.545v9.625c-1.265,0.91-2.604,1.59-4.033,2.039c-1.43,0.449-2.996,0.674-4.699,0.674
		c-2.019,0-3.838-0.313-5.46-0.936c-1.622-0.625-3.007-1.5-4.156-2.625c-1.146-1.131-2.028-2.48-2.646-4.055
		c-0.618-1.575-0.929-3.313-0.929-5.195c0-1.912,0.302-3.656,0.897-5.232c0.604-1.574,1.456-2.924,2.564-4.051
		c1.104-1.125,2.455-1.998,4.042-2.615s3.355-0.928,5.315-0.928c0.991,0,1.913,0.068,2.77,0.219c0.852,0.146,1.64,0.354,2.357,0.631
		c0.729,0.273,1.396,0.605,2.018,0.996c0.618,0.393,1.191,0.832,1.729,1.32l-0.962,1.541c-0.15,0.23-0.348,0.383-0.587,0.441
		c-0.239,0.063-0.505,0.014-0.796-0.166c-0.28-0.162-0.602-0.357-0.963-0.596c-0.361-0.231-0.802-0.459-1.321-0.676
		c-0.519-0.217-1.131-0.396-1.837-0.553c-0.706-0.15-1.543-0.229-2.512-0.229c-1.411,0-2.688,0.23-3.832,0.691
		c-1.146,0.461-2.117,1.118-2.923,1.979c-0.81,0.855-1.428,1.896-1.854,3.113c-0.432,1.221-0.646,2.588-0.646,4.104
		c0,1.574,0.225,2.984,0.674,4.229c0.448,1.242,1.09,2.299,1.925,3.166c0.834,0.871,1.846,1.531,3.036,1.986
		c1.188,0.454,2.521,0.684,4.008,0.684c1.166,0,2.201-0.131,3.105-0.396c0.899-0.263,1.783-0.627,2.646-1.095v-5.514h-3.897
		c-0.227,0-0.399-0.063-0.533-0.191c-0.137-0.127-0.202-0.284-0.202-0.475v-1.924h7.7L414.635,219.545L414.635,219.545z"/>
</g>
</svg>
